<svg width="28" height="29" viewBox="0 0 28 29" fill="none" xmlns="http://www.w3.org/2000/svg">
<path d="M14.1948 1.69402L14.1947 1.69404L14.1993 1.70387L17.2592 8.26188C17.6167 9.0514 18.3385 9.59615 19.1825 9.71565L26.0014 10.7584L26.0054 10.759C26.1849 10.7857 26.351 10.9177 26.4273 11.1657C26.5042 11.4155 26.4494 11.6664 26.2871 11.8345C26.287 11.8347 26.2869 11.8348 26.2868 11.8349L21.3437 16.9367L21.3436 16.9366L21.3344 16.9464C20.7755 17.539 20.499 18.3836 20.6373 19.2305C20.6374 19.2312 20.6375 19.2318 20.6376 19.2324L21.7964 26.4424L21.7972 26.447C21.844 26.73 21.7295 26.9558 21.5659 27.0829C21.4081 27.2055 21.2335 27.2233 21.0638 27.128L21.0621 27.127L14.9659 23.7215C14.2216 23.2918 13.2987 23.2918 12.5545 23.7215L6.45829 27.127L6.45651 27.128C6.2868 27.2233 6.11228 27.2055 5.95447 27.0829C5.79089 26.9558 5.67632 26.73 5.72316 26.447L5.72389 26.4424L6.88277 19.2324C6.88287 19.2318 6.88298 19.2312 6.88308 19.2305C7.0214 18.3836 6.74487 17.539 6.18593 16.9464L6.17903 16.9391L6.17198 16.9319L1.18778 11.856C1.02215 11.683 0.9683 11.4293 1.04239 11.1846C1.11499 10.9448 1.27606 10.8107 1.4687 10.7826L1.4687 10.7826L1.47516 10.7816L8.29414 9.73883C9.1825 9.61292 9.84184 9.01162 10.1962 8.3285L10.2062 8.30927L10.2153 8.28962L13.2765 1.70554C13.3927 1.46091 13.5824 1.3765 13.7465 1.3765C13.9094 1.3765 14.088 1.45855 14.1948 1.69402Z" stroke="black" stroke-opacity="0.5" stroke-width="2"/>
</svg>
